<?xml version="1.0" encoding="UTF-8"?>
<svg version="1.1" viewBox="0 0 2362.2 1417.2" xmlns="http://www.w3.org/2000/svg">
 <defs>
  <filter id="a">
   <feGaussianBlur stdDeviation="9.8583118"/>
  </filter>
 </defs>
 <rect x="-72.937" y="-123.59" width="2630.3" height="1723.1" rx="20" fill="#717171"/>
 <rect x="603.22" y="213.75" width="1200.5" height="803.29" fill="#411a35"/>
 <g transform="translate(-119.45 -23.89)">
  <path d="m1190.1 1042.6-2.2519 12.01s-2.2528 70.561-10.51 84.072c-8.257 13.511-72.061 48.791-72.061 48.791v9.0078h435.75v-9.0078s-63.804-35.28-72.061-48.791c-8.257-13.512-10.51-84.072-10.51-84.072l-2.252-12.01-133.05 2.5918-133.05-2.5918z" fill="#e8ebf0" fill-rule="evenodd"/>
  <path d="m1190.1 1042.6-2.2519 12.01s-0.2909 8.3381-0.9493 19.518h272.5c-0.6583-11.18-0.9492-19.518-0.9492-19.518l-2.252-12.01-133.05 2.5918-133.05-2.5918z" fill="#c4c4c4"/>
  <path d="m723.36 209.15c-9.972 0-18 8.028-18 18v815.37c0 9.972 8.028 18 18 18h1199.7c9.972 0 18-8.028 18-18v-815.37c0-9.972-8.028-18-18-18h-1199.7zm21.033 45.512h1157.6v760.35h-1157.6v-760.35z" fill="#474e5e"/>
 </g>
 <rect x="427.03" y="763.22" width="424.04" height="522.59" fill="#411a35"/>
 <g transform="translate(-1182.5 83.614)">
  <path d="m1607.1 640.85c-8.5961 0-15.535 6.9079-15.535 15.473v565.75c0 8.5648 6.939 15.473 15.535 15.473h440.14c8.5961 0 15.533-6.908 15.533-15.473v-565.75c0-8.5647-6.9371-15.473-15.533-15.473zm0 1h440.14c8.0615 0 14.533 6.4469 14.533 14.473v565.75c0 8.0257-6.4717 14.473-14.533 14.473h-440.14c-8.0615 0-14.535-6.447-14.535-14.473v-565.75c0-8.0257 6.4736-14.473 14.535-14.473z" color="#000000" color-rendering="auto" fill="#7f8081" image-rendering="auto" shape-rendering="auto" solid-color="#000000" style="block-progression:tb;isolation:auto;mix-blend-mode:normal;text-decoration-color:#000000;text-decoration-line:none;text-decoration-style:solid;text-indent:0;text-transform:none;white-space:normal"/>
 </g>
 <path transform="translate(-1182.5 83.614)" d="m1607.1 641.35c-8.3288 0-15.035 6.6774-15.035 14.973v565.75c0 8.2952 6.7063 14.973 15.035 14.973h440.14c8.3288 0 15.033-6.6775 15.033-14.973v-565.75c0-8.2952-6.7044-14.973-15.033-14.973h-440.14zm24.652 62.674h390.83v472.22h-390.83v-472.22z" fill="#474e5e" stroke="#474e5e" stroke-width="1.0002"/>
 <circle cx="644.66" cy="1289.9" r="19.41" fill="#374054" stroke="#bec1c7" stroke-linejoin="round" stroke-width=".9"/>
 <g transform="matrix(.64152 0 0 .64152 1220.9 583.07)">
  <path d="m-1103.3 418.35 36 98.344 0.01 0.0137-56.795 56.393 16.516 37.057v6e-3l49.146-22.963 9.4961 0.6914 12.66 0.9277v-8e-3l43.508 110.78-8.8633 252.99 0.033-0.0743-0.022 0.0625 37.453-81.766 37.465-81.777 134.15-16.92 78.557 169.2v-0.0215l4e-3 8e-3 -4e-3 -0.0117v-205.02l41.492 55.592-8e-3 -0.0332 0.0195 0.0391-11.418-45.812-13.57-54.502-25.521-12.131-39.74-18.898v0.0118l-115.21 2.0136-136.16-136.97-26.281-3.5859v-4e-3l-62.906-103.62z" filter="url(#a)"/>
  <g transform="translate(-1328.3 400.69)">
   <path d="m261.04 116.01-56.801 56.398 16.517 37.062 49.147-22.962 22.156 1.6114 43.507 110.78-8.8626 252.99 74.929-163.56 134.15-16.92 78.555 169.19v-205.05l41.493 55.593-24.976-100.31-65.261-31.019-115.21 2.0142-136.16-136.97-26.588-3.6256z" fill="#fff"/>
   <path d="m225.03 17.656 36 98.344 19.844 51.5 7.0625-46.219-62.906-103.62zm55.844 149.84-60.125 41.969 49.156-22.969 22.156 1.625-11.188-20.625zm57.562-18.25 17.062 145.28 54.688 40.469-21.062-63.25 23.906-29.062 17.719-0.59375-92.312-92.844zm227.16 110.56 5.25 58.094 38.188-17.656 46.812 90.906-25-100.31-65.25-31.031zm27.469 96.25-57.281 15.344 78.562 169.19-49.188-153.19 27.906-31.344zm-191.44 32.281-52.406 1.9062 23.375 33.031-45.875 128.59 74.906-163.53z" fill="#dc4913"/>
  </g>
 </g>
 <rect x="776.42" y="1024.5" width="208.29" height="313.55" fill="#411a35"/>
 <g transform="translate(-1209.8 59.071)">
  <path d="m1987.3 942.61c-5.8083 0-10.5 4.6916-10.5 10.5v354.94c0 5.8083 4.6917 10.5 10.5 10.5h205.65c5.8083 0 10.5-4.6917 10.5-10.5v-354.94c0-5.8084-4.6917-10.5-10.5-10.5h-205.65zm0 1h205.65c5.2716 0 9.5 4.2284 9.5 9.5v354.94c0 5.2716-4.2284 9.5-9.5 9.5h-205.65c-5.2716 0-9.5-4.2284-9.5-9.5v-354.94c0-5.2716 4.2284-9.5 9.5-9.5z" color="#000000" color-rendering="auto" fill="#7f8081" image-rendering="auto" shape-rendering="auto" solid-color="#000000" style="block-progression:tb;isolation:auto;mix-blend-mode:normal;text-decoration-color:#000000;text-decoration-line:none;text-decoration-style:solid;text-indent:0;text-transform:none;white-space:normal"/>
  <path d="m1987.3 943.11c-5.54 0-10 4.46-10 10v354.94c0 5.54 4.46 10 10 10h205.65c5.54 0 10-4.46 10-10v-354.94c0-5.54-4.46-10-10-10h-205.65zm7.3321 32.486h190.98v294.13h-190.98v-294.13z" fill="#474e5e"/>
  <circle cx="2090.1" cy="1293.9" r="12.844" fill="#374054" stroke="#bec1c7" stroke-linejoin="round" stroke-width=".59552"/>
 </g>
 <g transform="matrix(1.1304 0 0 1.1304 2219.2 -131.21)">
  <path d="m-1103.3 418.35 36 98.344 0.01 0.0137-56.795 56.393 16.516 37.057v6e-3l49.146-22.963 9.4961 0.6914 12.66 0.9277v-8e-3l43.508 110.78-8.8633 252.99 0.033-0.0743-0.022 0.0625 37.453-81.766 37.465-81.777 134.15-16.92 78.557 169.2v-0.0215l4e-3 8e-3 -4e-3 -0.0117v-205.02l41.492 55.592-8e-3 -0.0332 0.0195 0.0391-11.418-45.812-13.57-54.502-25.521-12.131-39.74-18.898v0.0118l-115.21 2.0136-136.16-136.97-26.281-3.5859v-4e-3l-62.906-103.62z" filter="url(#a)"/>
  <g transform="translate(-1328.3 400.69)">
   <path d="m261.04 116.01-56.801 56.398 16.517 37.062 49.147-22.962 22.156 1.6114 43.507 110.78-8.8626 252.99 74.929-163.56 134.15-16.92 78.555 169.19v-205.05l41.493 55.593-24.976-100.31-65.261-31.019-115.21 2.0142-136.16-136.97-26.588-3.6256z" fill="#fff"/>
   <path d="m225.03 17.656 36 98.344 19.844 51.5 7.0625-46.219-62.906-103.62zm55.844 149.84-60.125 41.969 49.156-22.969 22.156 1.625-11.188-20.625zm57.562-18.25 17.062 145.28 54.688 40.469-21.062-63.25 23.906-29.062 17.719-0.59375-92.312-92.844zm227.16 110.56 5.25 58.094 38.188-17.656 46.812 90.906-25-100.31-65.25-31.031zm27.469 96.25-57.281 15.344 78.562 169.19-49.188-153.19 27.906-31.344zm-191.44 32.281-52.406 1.9062 23.375 33.031-45.875 128.59 74.906-163.53z" fill="#dc4913"/>
  </g>
 </g>
 <rect x="1421.4" y="799.05" width="740.58" height="486.75" fill="#411a35"/>
 <g transform="translate(1158.7 77.642)">
  <path d="m261.15 701.88c-11.08 0-20 8.92-20 20v484.44c0 11.08 8.92 20 20 20h742.76c11.08 0 20-8.92 20-20v-484.44c0-11.08-8.92-20-20-20h-742.76zm13.754 33.768h715.26v471.63h-715.26v-471.63z" fill="#474e5e"/>
  <path d="m261.15 701.38c-11.348 0-20.498 9.5905-20.498 21.485v483.27c0 11.895 9.15 21.487 20.498 21.487h742.76c11.348 0 20.5-9.5925 20.5-21.487v-483.27c0-11.895-9.152-21.485-20.5-21.485h-742.76zm0 1.0461h742.76c10.812 0 19.5 9.1064 19.5 20.439v483.27c0 11.332-8.6881 20.439-19.5 20.439h-742.76c-10.812 0-19.5-9.1065-19.5-20.439v-483.27c0-11.333 8.6881-20.439 19.5-20.439z" color="#000000" color-rendering="auto" fill="#808080" image-rendering="auto" shape-rendering="auto" solid-color="#000000" style="block-progression:tb;isolation:auto;mix-blend-mode:normal;text-decoration-color:#000000;text-decoration-line:none;text-decoration-style:solid;text-indent:0;text-transform:none;white-space:normal"/>
  <path d="m1067.1 1207.3a4.0292 4.0292 0 0 0 -4.0293 4.0293 4.0292 4.0292 0 0 0 4.0293 4.0293 4.0292 4.0292 0 0 0 4.0293 -4.0293 4.0292 4.0292 0 0 0 -4.0293 -4.0293zm12.389 0a4.0292 4.0292 0 0 0 -4.0293 4.0293 4.0292 4.0292 0 0 0 4.0293 4.0293 4.0292 4.0292 0 0 0 4.0293 -4.0293 4.0292 4.0292 0 0 0 -4.0293 -4.0293z" fill="#6b6b6b"/>
  <path d="m1020.3 1210.2a1.1001 1.1001 0 1 0 0 2.1992h29.06a1.1001 1.1001 0 1 0 0 -2.1992h-29.06z" color="#000000" color-rendering="auto" fill="#6b6b6b" fill-rule="evenodd" image-rendering="auto" shape-rendering="auto" solid-color="#000000" style="block-progression:tb;isolation:auto;mix-blend-mode:normal;text-decoration-color:#000000;text-decoration-line:none;text-decoration-style:solid;text-indent:0;text-transform:none;white-space:normal"/>
 </g>
 <g transform="matrix(.3968 0 0 .3968 1236.8 917.66)">
  <path d="m-1103.3 418.35 36 98.344 0.01 0.0137-56.795 56.393 16.516 37.057v6e-3l49.146-22.963 9.4961 0.6914 12.66 0.9277v-8e-3l43.508 110.78-8.8633 252.99 0.033-0.0743-0.022 0.0625 37.453-81.766 37.465-81.777 134.15-16.92 78.557 169.2v-0.0215l4e-3 8e-3 -4e-3 -0.0117v-205.02l41.492 55.592-8e-3 -0.0332 0.0195 0.0391-11.418-45.812-13.57-54.502-25.521-12.131-39.74-18.898v0.0118l-115.21 2.0136-136.16-136.97-26.281-3.5859v-4e-3l-62.906-103.62z" filter="url(#a)"/>
  <g transform="translate(-1328.3 400.69)">
   <path d="m261.04 116.01-56.801 56.398 16.517 37.062 49.147-22.962 22.156 1.6114 43.507 110.78-8.8626 252.99 74.929-163.56 134.15-16.92 78.555 169.19v-205.05l41.493 55.593-24.976-100.31-65.261-31.019-115.21 2.0142-136.16-136.97-26.588-3.6256z" fill="#fff"/>
   <path d="m225.03 17.656 36 98.344 19.844 51.5 7.0625-46.219-62.906-103.62zm55.844 149.84-60.125 41.969 49.156-22.969 22.156 1.625-11.188-20.625zm57.562-18.25 17.062 145.28 54.688 40.469-21.062-63.25 23.906-29.062 17.719-0.59375-92.312-92.844zm227.16 110.56 5.25 58.094 38.188-17.656 46.812 90.906-25-100.31-65.25-31.031zm27.469 96.25-57.281 15.344 78.562 169.19-49.188-153.19 27.906-31.344zm-191.44 32.281-52.406 1.9062 23.375 33.031-45.875 128.59 74.906-163.53z" fill="#dc4913"/>
  </g>
 </g>
 <g transform="matrix(.60474 0 0 .60474 2334.4 650.27)">
  <path d="m-1103.3 418.35 36 98.344 0.01 0.0137-56.795 56.393 16.516 37.057v6e-3l49.146-22.963 9.4961 0.6914 12.66 0.9277v-8e-3l43.508 110.78-8.8633 252.99 0.033-0.0743-0.022 0.0625 37.453-81.766 37.465-81.777 134.15-16.92 78.557 169.2v-0.0215l4e-3 8e-3 -4e-3 -0.0117v-205.02l41.492 55.592-8e-3 -0.0332 0.0195 0.0391-11.418-45.812-13.57-54.502-25.521-12.131-39.74-18.898v0.0118l-115.21 2.0136-136.16-136.97-26.281-3.5859v-4e-3l-62.906-103.62z" filter="url(#a)"/>
  <g transform="translate(-1328.3 400.69)">
   <path d="m261.04 116.01-56.801 56.398 16.517 37.062 49.147-22.962 22.156 1.6114 43.507 110.78-8.8626 252.99 74.929-163.56 134.15-16.92 78.555 169.19v-205.05l41.493 55.593-24.976-100.31-65.261-31.019-115.21 2.0142-136.16-136.97-26.588-3.6256z" fill="#fff"/>
   <path d="m225.03 17.656 36 98.344 19.844 51.5 7.0625-46.219-62.906-103.62zm55.844 149.84-60.125 41.969 49.156-22.969 22.156 1.625-11.188-20.625zm57.562-18.25 17.062 145.28 54.688 40.469-21.062-63.25 23.906-29.062 17.719-0.59375-92.312-92.844zm227.16 110.56 5.25 58.094 38.188-17.656 46.812 90.906-25-100.31-65.25-31.031zm27.469 96.25-57.281 15.344 78.562 169.19-49.188-153.19 27.906-31.344zm-191.44 32.281-52.406 1.9062 23.375 33.031-45.875 128.59 74.906-163.53z" fill="#dc4913"/>
  </g>
 </g>
 <g fill-rule="evenodd">
  <path transform="translate(1158.7 77.642)" d="m155.59 1189.8-9.7031 2.5273v37.875s10.271 11.281 16.117 11.281h941.06c5.8458 0 16.117-11.281 16.117-11.281v-37.875l-9.7011-2.5273h-953.88z" fill="#e8ebf0"/>
  <path d="m1757.4 1267.5l9.1602 9.1601h61.973l9.1602-9.1601h-80.293z" fill="#6b6b6b"/>
 </g>
</svg>
